<?xml version="1.0" encoding="utf-8"?>
<!-- Generator: Adobe Illustrator 25.4.1, SVG Export Plug-In . SVG Version: 6.00 Build 0)  -->
<svg version="1.1" id="Logo" xmlns="http://www.w3.org/2000/svg" xmlns:xlink="http://www.w3.org/1999/xlink" x="0px" y="0px"
	 width="115px" height="31.5px" viewBox="0 0 115 31.5" style="enable-background:new 0 0 115 31.5;" xml:space="preserve">
<style type="text/css">
	.st0{fill:#0096D6;}
	.st1{fill:#0075C9;}
	.st2{fill:#71D1E7;}
	.st3{fill:#0033A1;}
	.st4{fill:#522582;}
	.st5{fill:#004F93;}
	.st6{fill:#2B2422;}
	.st7{fill:#1595D3;}
	.st8{fill:#009ADA;}
	.st9{fill-rule:evenodd;clip-rule:evenodd;fill:#009ADA;}
	.st10{fill:#211915;}
	.st11{fill:#1D1D1B;}
	.st12{fill:#FF8300;}
	.st13{fill:#EA0029;}
</style>
<g>
	<path class="st0" d="M31.8,2.5H2v4.6h28.3v0c0.8,0,1.5,0.7,1.5,1.5v15.3l0,0c0,0.8-0.7,1.5-1.5,1.5H8.1c-0.8,0-1.5-0.7-1.5-1.5
		v-6.2c0-0.8,0.7-1.5,1.5-1.5h19.1v-4.6H6.6c-2.5,0-4.6,2-4.6,4.6v9.2c0,2.5,2,4.6,4.6,4.6h25.2c2.5,0,4.6-2,4.6-4.6V7.1
		C36.3,4.6,34.3,2.5,31.8,2.5"/>
	<g>
		<path d="M53.3,9l3.6,10.7c0.4,1.3,0.7,1.6,1.5,1.6h0.7v1.9h-7.8v-1.9h0.6c0.6,0,1.2-0.1,1.2-0.3c0-0.2,0-0.4-0.1-0.8l-0.4-1.5
			h-4.4l-0.3,0.9c-0.2,0.7-0.3,1.1-0.3,1.4c0,0.3,0.7,0.4,1.3,0.4h0.6v1.9h-6.3v-1.9H44c0.7,0,1-0.3,1.5-1.6L49,9H53.3 M48.8,16.8
			h3.1l-1.5-4.6h0L48.8,16.8z"/>
		<path d="M60.3,11.6c0-0.6-0.2-0.9-0.8-0.9h-1V9h5.3v5.3c0.8-0.9,1.8-1.5,2.8-1.5c3.2,0,4.4,2.5,4.4,5.3c0,2.8-1.2,5.3-4.4,5.3
			c-1.3,0-2.5-0.5-3.3-1.6l-0.6,1.3h-2.4V11.6 M63.9,18.2c0,2.2,0.5,3.5,1.7,3.5c1.2,0,1.7-1.3,1.7-3.5c0-2.2-0.5-3.5-1.7-3.5
			C64.3,14.7,63.9,16,63.9,18.2"/>
		<path d="M72.3,11.6c0-0.6-0.2-0.9-0.8-0.9h-1V9h5.3v5.3c0.8-0.9,1.8-1.5,2.8-1.5c3.2,0,4.4,2.5,4.4,5.3c0,2.8-1.2,5.3-4.4,5.3
			c-1.3,0-2.5-0.5-3.3-1.6l-0.6,1.3h-2.4V11.6 M75.8,18.2c0,2.2,0.5,3.5,1.7,3.5c1.2,0,1.7-1.3,1.7-3.5c0-2.2-0.5-3.5-1.7-3.5
			C76.3,14.7,75.8,16,75.8,18.2"/>
		<path d="M95.1,18.2c0,3.4-2.3,5.3-5.5,5.3c-3.2,0-5.5-1.9-5.5-5.3c0-3.4,2.3-5.3,5.5-5.3C92.7,12.9,95.1,14.8,95.1,18.2
			 M87.8,18.2c0,2.5,0.4,3.6,1.7,3.6c1.3,0,1.7-1.1,1.7-3.6c0-2.5-0.4-3.6-1.7-3.6C88.3,14.6,87.8,15.7,87.8,18.2"/>
		<path d="M110.3,18.4V20c0,1-0.2,1.6-1,1.6c-0.5,0-0.7-0.4-0.7-0.8v-5.9h2.6v-1.7h-2.6v-4h-2.1c-0.2,1.8-0.7,4-2.9,4h-3.3v-4h-2.1
			c-0.2,1.8-0.7,4-2.9,4v1.7h1.4v5.4c0,2.2,1.2,3.2,3.4,3.2c2.6,0,3.6-1.2,3.6-3.2v-1.9H102V20c0,1-0.2,1.6-1,1.6
			c-0.5,0-0.7-0.4-0.7-0.8v-5.9h4.8v5.4c0,2.2,1.2,3.2,3.4,3.2c2.6,0,3.6-1.2,3.6-3.2v-1.9H110.3"/>
	</g>
</g>
</svg>
