<?xml version="1.0" encoding="utf-8"?>
<!-- Generator: Adobe Illustrator 25.4.1, SVG Export Plug-In . SVG Version: 6.00 Build 0)  -->
<svg version="1.1" id="Logo" xmlns="http://www.w3.org/2000/svg" xmlns:xlink="http://www.w3.org/1999/xlink" x="0px" y="0px"
	 width="115px" height="31.5px" viewBox="0 0 115 31.5" style="enable-background:new 0 0 115 31.5;" xml:space="preserve">
<style type="text/css">
	.st0{fill:#0096D6;}
	.st1{fill:#0075C9;}
	.st2{fill:#71D1E7;}
	.st3{fill:#0033A1;}
	.st4{fill:#522582;}
	.st5{fill:#004F93;}
	.st6{fill:#2B2422;}
	.st7{fill:#1595D3;}
	.st8{fill:#009ADA;}
	.st9{fill-rule:evenodd;clip-rule:evenodd;fill:#009ADA;}
	.st10{fill:#211915;}
	.st11{fill:#1D1D1B;}
	.st12{fill:#FF8300;}
	.st13{fill:#EA0029;}
</style>
<g>
	<path class="st5" d="M79.2,12.7c-2.4-1.4-5.5-1.1-8.1-0.5c-0.7,0.1-1.4,0.4-2.2,0.6l1,3.3c0.9-0.3,1.8-0.6,2.6-0.8
		c2.2-0.4,4.8-0.1,5,2.8h-2.1c-2.9,0-5.1,0.4-6.4,1.3c-1.4,0.9-2.1,2.2-2.1,4c0,1.5,0.5,2.8,1.4,3.7c1,1,2.3,1.4,3.9,1.4
		c2,0,4.5-0.6,5.5-2.6l0,2.5h5V20C82.6,16.6,81.5,14,79.2,12.7z M77.4,23.7c-0.7,0.6-2.3,1.1-3.3,1.1c-0.6,0-1.1-0.2-1.5-0.5
		c-0.4-0.3-0.6-0.8-0.6-1.4c0-0.8,0.4-1.4,1.1-1.7c0.7-0.3,1.9-0.5,3.5-0.5h0.9V23.7z"/>
	<path class="st5" d="M96,12.1L96,12.1c-0.9-0.1-1.4-0.2-1.6-0.2c-1.1,0-2.1,0.3-2.8,0.8c-0.8,0.6-1.5,1.4-2,2.7v-3h-4.9v16h5.5
		v-6.9c0-1.6,0.3-2.9,1-3.7c0.7-0.9,1.7-1.3,3-1.3c0.3,0,0.7,0,1,0.1c0.3,0,0.5,0.1,0.7,0.2L96,12.1z"/>
	<path class="st5" d="M107.7,12.7c-2.4-1.4-5.6-1.1-8.2-0.5c-0.7,0.1-1.5,0.4-2.2,0.6l1,3.3c0.9-0.3,1.8-0.6,2.6-0.8
		c2.2-0.4,4.9-0.1,5,2.8h-2.1c-2.9,0-5.1,0.4-6.4,1.3c-1.4,0.9-2.1,2.2-2.1,4c0,1.5,0.5,2.8,1.5,3.7c1,1,2.2,1.4,3.8,1.4
		c2.1,0,4.5-0.6,5.5-2.6l0,2.5h5.1V20C111,16.6,110,14,107.7,12.7z M105.8,23.7c-0.7,0.6-2.2,1.1-3.3,1.1c-0.6,0-1.1-0.2-1.5-0.5
		c-0.4-0.3-0.6-0.8-0.6-1.4c0-0.8,0.3-1.4,1.1-1.7c0.7-0.3,1.8-0.5,3.4-0.5h0.9V23.7z"/>
	<polygon class="st5" points="107.9,4.9 103.5,4.9 101,9.8 103.6,9.8 	"/>
	<path class="st5" d="M61.2,18.5c-0.9-0.3-3.4-0.7-3.4-1.8c0-0.8,0.6-1.2,1.3-1.3c1.5-0.3,3.8,0.2,5.2,0.6l0.5-3.4
		c-3-1.1-7.4-1.3-10.3,0.7c-1.3,0.9-2,2.2-2,3.9c0,2.7,2.4,4,4.4,4.7c0.9,0.3,3.4,0.7,3.4,1.8c0,1.5-1.8,1.5-2.9,1.4
		c-1.8-0.1-3-0.6-4.4-1l-0.5,3.7c3.5,1.3,7.9,1.8,11.3-0.5c1.3-1,2-2.3,2-4.1c0-1-0.4-2-1.1-2.8C63.9,19.3,62.4,18.9,61.2,18.5z"/>
	<path class="st5" d="M46.9,18.5c-0.9-0.3-3.4-0.7-3.4-1.8c0-0.8,0.6-1.2,1.3-1.3c1.5-0.3,3.8,0.2,5.2,0.6l0.5-3.4
		c-3.1-1.1-7.4-1.3-10.3,0.7c-1.3,0.9-2,2.2-2,3.9c0,2.7,2.4,4,4.4,4.7c0.9,0.3,3.4,0.7,3.4,1.8c0,1.5-1.8,1.5-2.8,1.4
		c-1.8-0.1-3.1-0.6-4.4-1l-0.5,3.7c3.5,1.3,8,1.8,11.3-0.5c1.3-1,2-2.3,2-4.1c0-1-0.4-2-1.1-2.8C49.6,19.3,48.2,18.9,46.9,18.5z"/>
	<path class="st5" d="M33,12.7c-2.4-1.4-5.6-1.1-8.2-0.5c-0.7,0.1-1.4,0.4-2.2,0.6l0.9,3.3c0.9-0.3,1.8-0.6,2.6-0.8
		c2.2-0.4,4.8-0.1,5,2.8h-2.1c-2.9,0-5.1,0.4-6.4,1.3c-1.4,0.9-2.1,2.2-2.1,4c0,1.5,0.5,2.8,1.5,3.7c0.9,1,2.2,1.4,3.9,1.4
		c2,0,4.5-0.6,5.5-2.6v2.5h5V20C36.4,16.6,35.4,14,33,12.7z M31.2,23.7c-0.7,0.6-2.2,1.1-3.3,1.1c-0.6,0-1.1-0.2-1.5-0.5
		c-0.4-0.3-0.6-0.8-0.6-1.4c0-0.8,0.3-1.4,1.1-1.7c0.7-0.3,1.9-0.5,3.5-0.5h0.8V23.7z"/>
	<path class="st5" d="M8.9,21C7.7,19.8,7,18.2,7,16.2c0-1.9,0.5-3.5,1.9-4.9c2.3-2.3,6.5-2.5,9.5-1.5c0.4,0.1,0.5,0.2,0.7,0.3
		l1.7-4.8c-1.3-0.5-2.6-0.9-4-1.1c-3.9-0.6-8.1,0-11.2,2.5C2.6,9,1,12.3,1,16.1c0,3.8,1.5,7.2,4.5,9.6c4,3.1,9.5,3.3,14.2,1.8
		l-1.4-5C15.4,23.5,11.2,23.3,8.9,21z"/>
</g>
</svg>
