<?xml version="1.0" encoding="utf-8"?>
<!-- Generator: Adobe Illustrator 25.4.1, SVG Export Plug-In . SVG Version: 6.00 Build 0)  -->
<svg version="1.1" id="Logo" xmlns="http://www.w3.org/2000/svg" xmlns:xlink="http://www.w3.org/1999/xlink" x="0px" y="0px"
	 width="71.6px" height="31.5px" viewBox="0 0 71.6 31.5" style="enable-background:new 0 0 71.6 31.5;" xml:space="preserve">
<style type="text/css">
	.st0{fill:#0096D6;}
	.st1{fill:#0075C9;}
	.st2{fill:#71D1E7;}
	.st3{fill:#0033A1;}
	.st4{fill:#522582;}
	.st5{fill:#004F93;}
	.st6{fill:#2B2422;}
	.st7{fill:#1595D3;}
	.st8{fill:#009ADA;}
	.st9{fill-rule:evenodd;clip-rule:evenodd;fill:#009ADA;}
	.st10{fill:#211915;}
	.st11{fill:#1D1D1B;}
	.st12{fill:#FF8300;}
	.st13{fill:#EA0029;}
</style>
<g>
	<g>
		<g>
			<path class="st1" d="M1,29.7l3.1-4.9h0.7l1.1,4.9H5.2l-0.3-1.5H3.3l0.3-0.5h1.2l-0.5-2.2l-2.6,4.3H1z"/>
			<path class="st1" d="M8.8,29.7l0.1-0.9c-0.4,0.6-0.8,0.9-1.4,0.9c-0.8,0-1.1-0.6-0.9-1.8c0.2-1.2,1-1.9,2.2-1.9
				c0.2,0,0.4,0,0.6,0l0.3-1.3h0.6l-1,4.9H8.8z M8.7,26.6c-0.8,0-1.2,0.4-1.4,1.3c-0.2,0.8,0,1.2,0.5,1.2c0.5,0,0.9-0.3,1.3-0.9
				l0.3-1.6C9.2,26.6,9,26.6,8.7,26.6z"/>
			<path class="st1" d="M12.4,28.1h-1.2c-0.1,0.7,0.1,1.1,0.8,1.1c0.5,0,1-0.1,1.4-0.4l-0.1,0.5c-0.4,0.3-0.8,0.4-1.4,0.4
				c-1.1,0-1.5-0.6-1.3-1.8c0.2-1.2,0.9-1.8,2-1.8c0.9,0,1.3,0.3,1.2,1C13.7,27.7,13.2,28.1,12.4,28.1z M12.5,27.5
				c0.4,0,0.7-0.2,0.7-0.5c0.1-0.3-0.2-0.5-0.7-0.5c-0.6,0-1,0.3-1.2,1H12.5z"/>
			<path class="st1" d="M14.8,29.7h-0.6l1-4.9h0.6L14.8,29.7z"/>
			<path class="st1" d="M18.2,29.7l0.1-0.9c-0.4,0.6-0.8,0.9-1.4,0.9c-0.8,0-1.1-0.6-0.9-1.8c0.2-1.2,1-1.9,2.2-1.9
				c0.5,0,0.9,0,1.2,0.1l-0.7,3.5H18.2z M18.1,26.6c-0.8,0-1.2,0.4-1.4,1.3c-0.2,0.8,0,1.2,0.5,1.2c0.5,0,0.9-0.3,1.3-0.9l0.3-1.6
				C18.7,26.6,18.4,26.6,18.1,26.6z"/>
			<path class="st1" d="M20.6,26h0.6L21,27.2c0.5-0.7,1-1.1,1.7-1.1c0.7,0,0.9,0.4,0.8,1.2l-0.5,2.4h-0.6l0.5-2.4
				c0.1-0.4-0.1-0.6-0.5-0.6c-0.5,0-1,0.4-1.4,1.1l-0.4,1.9h-0.6L20.6,26z"/>
			<path class="st1" d="M25.2,25.5l0,0.6h1l-0.1,0.5h-0.9l-0.4,2.1c-0.1,0.3,0,0.5,0.3,0.5h0.4l-0.1,0.5h-0.6c-0.6,0-0.8-0.3-0.7-1
				l0.6-3.2H25.2z"/>
			<path class="st1" d="M28.2,28.1h-1.2c-0.1,0.7,0.1,1.1,0.8,1.1c0.5,0,1-0.1,1.4-0.4l-0.1,0.5c-0.4,0.3-0.8,0.4-1.4,0.4
				c-1.1,0-1.5-0.6-1.3-1.8c0.2-1.2,0.9-1.8,2-1.8c0.9,0,1.3,0.3,1.2,1C29.6,27.7,29.1,28.1,28.2,28.1z M28.3,27.5
				c0.4,0,0.7-0.2,0.7-0.5c0.1-0.3-0.2-0.5-0.7-0.5c-0.6,0-1,0.3-1.2,1H28.3z"/>
			<path class="st1" d="M33.1,29.7c-1,0-1.4-0.6-1.1-1.8c0.2-1.2,0.9-1.8,2.1-1.8c0.3,0,0.7,0,0.9,0.1l-0.1,0.5
				c-0.3-0.1-0.6-0.1-1-0.1c-0.7,0-1.1,0.4-1.3,1.3c-0.2,0.9,0,1.3,0.6,1.3c0.5,0,0.9-0.1,1.2-0.4l-0.1,0.5
				C34,29.5,33.6,29.7,33.1,29.7z"/>
			<path class="st1" d="M37.3,26c1.1,0,1.5,0.6,1.3,1.8c-0.2,1.2-0.9,1.8-2,1.8c-1.1,0-1.5-0.6-1.3-1.8C35.5,26.6,36.2,26,37.3,26z
				 M37.9,27.8c0.2-0.8-0.1-1.3-0.8-1.3c-0.7,0-1.1,0.4-1.3,1.3c-0.2,0.9,0.1,1.3,0.8,1.3C37.3,29.1,37.7,28.7,37.9,27.8z"/>
			<path class="st1" d="M39.8,26h0.6l-0.2,1.1c0.5-0.7,1-1.1,1.7-1.1s0.9,0.4,0.8,1.2l-0.5,2.4h-0.6l0.5-2.4
				c0.1-0.4-0.1-0.6-0.5-0.6c-0.5,0-1,0.4-1.4,1.1l-0.4,1.9H39L39.8,26z"/>
			<path class="st1" d="M46.1,25.5l0,0.6h1L47,26.6h-0.9l-0.4,2.1c-0.1,0.3,0,0.5,0.3,0.5h0.4l-0.1,0.5h-0.6c-0.6,0-0.8-0.3-0.7-1
				l0.6-3.2H46.1z"/>
			<path class="st1" d="M50.3,29.7h-0.6l0.2-1.1c-0.5,0.7-1,1.1-1.7,1.1c-0.7,0-0.9-0.4-0.8-1.2l0.5-2.4h0.6l-0.5,2.4
				c-0.1,0.4,0.1,0.6,0.5,0.6c0.5,0,1-0.4,1.4-1.1l0.4-1.9h0.6L50.3,29.7z"/>
			<path class="st1" d="M54,26l0.5,2.8L56,26h0.7l-2.2,3.6h-0.6L53.3,26H54z"/>
			<path class="st1" d="M57.2,29.7h-0.6l0.7-3.6h0.6L57.2,29.7z M58.1,25.3h-0.6l0.1-0.6h0.6L58.1,25.3z"/>
			<path class="st1" d="M60.7,29.7l0.1-0.9c-0.4,0.6-0.8,0.9-1.4,0.9c-0.8,0-1.1-0.6-0.9-1.8c0.2-1.2,1-1.9,2.2-1.9
				c0.2,0,0.4,0,0.6,0l0.3-1.3h0.6l-1,4.9H60.7z M60.5,26.6c-0.8,0-1.2,0.4-1.4,1.3c-0.2,0.8,0,1.2,0.5,1.2c0.5,0,0.9-0.3,1.3-0.9
				l0.3-1.6C61.1,26.6,60.9,26.6,60.5,26.6z"/>
			<path class="st1" d="M64.6,29.7l0.1-0.9c-0.4,0.6-0.8,0.9-1.4,0.9c-0.8,0-1.1-0.6-0.9-1.8c0.2-1.2,1-1.9,2.2-1.9
				c0.5,0,0.9,0,1.2,0.1l-0.7,3.5H64.6z M64.5,26.6c-0.8,0-1.2,0.4-1.4,1.3c-0.2,0.8,0,1.2,0.5,1.2c0.5,0,0.9-0.3,1.3-0.9l0.3-1.6
				C65,26.6,64.8,26.6,64.5,26.6z"/>
		</g>
	</g>
	<g>
		<g>
			<path id="XMLID_36_" class="st2" d="M18.9,16.4H2.5L1,23.7C1.4,21.8,3.4,20,5.4,20h12.8c1,0,2-0.8,2.2-1.8
				C20.6,17.2,19.9,16.4,18.9,16.4 M16.7,9.1H4.1l-1.6,7.3c0.4-2,2.4-3.6,4.4-3.6h9c1,0,2-0.8,2.2-1.8C18.3,9.9,17.7,9.1,16.7,9.1
				 M22,1.8H5.6L4.1,9.1c0.4-2,2.4-3.6,4.4-3.6h12.8c1,0,2-0.8,2.2-1.8C23.7,2.7,23,1.8,22,1.8"/>
			<path id="XMLID_32_" class="st1" d="M15.1,16.4H2.5L1,23.7C1.4,21.8,3.4,20,5.4,20h9c1,0,2-0.8,2.2-1.8
				C16.8,17.2,16.1,16.4,15.1,16.4 M12.9,9.1H4.1l-1.6,7.3c0.4-2,2.4-3.6,4.4-3.6h5.2c1,0,2-0.8,2.2-1.8C14.5,9.9,13.9,9.1,12.9,9.1
				 M18.2,1.8H5.6L4.1,9.1c0.4-2,2.4-3.6,4.4-3.6h9c1,0,2-0.8,2.2-1.8C19.9,2.7,19.2,1.8,18.2,1.8"/>
			<path id="XMLID_1_" class="st3" d="M11.3,16.4H2.5L1,23.7C1.4,21.8,3.4,20,5.4,20h5.2c1,0,2-0.8,2.2-1.8
				C13,17.2,12.3,16.4,11.3,16.4 M9.1,9.1h-5l-1.6,7.3c0.4-2,2.4-3.6,4.4-3.6h1.4c1,0,2-0.8,2.2-1.8C10.7,9.9,10.1,9.1,9.1,9.1
				 M14.4,1.8H5.6L4.1,9.1c0.4-2,2.4-3.6,4.4-3.6h5.2c1,0,2-0.8,2.2-1.8C16.1,2.7,15.4,1.8,14.4,1.8"/>
		</g>
		<path class="st3" d="M29.9,4.2h9.3l0.5-2.4H27.6L23.7,20H36l0.5-2.4H27l1.2-5.7h8.8l0.5-2.4h-8.8L29.9,4.2z M41.8,1.9L37.9,20h2.8
			l3.9-18.2H41.8z M52.1,6.5c-4.1,0-6.6,2.2-7.6,6.5c-0.5,2.4-0.3,4.2,0.6,5.4c0.8,1,2.2,1.5,4.1,1.5c1.9,0,3.6-0.6,5-1.7l0.1-0.1
			l0.6-2.6l-0.5,0.4c-1.3,1-2.9,1.6-4.7,1.6c-1.1,0-1.9-0.3-2.3-0.8c-0.4-0.5-0.6-1.4-0.3-2.5H51c3.2,0,5.1-1.3,5.6-3.8
			c0.2-1.1,0.1-2-0.4-2.7C55.5,7,54.1,6.5,52.1,6.5z M53.9,10.4c-0.2,1-1,1.5-2.5,1.5h-3.8c0.7-2,2-3,4.1-3c1,0,1.7,0.2,2,0.6
			C53.9,9.7,53.9,10,53.9,10.4z M70.2,7.1c-1.2-0.4-2.8-0.5-4.5-0.5c-4.4,0-7.2,2.3-8.2,6.9c-0.6,2.6-0.4,4.4,0.5,5.5
			c0.6,0.8,1.6,1.1,2.8,1.1c1.8,0,3.3-0.8,4.7-2.4L65.1,20h2.5l2.7-12.9L70.2,7.1z M66,14.6c-1.3,2-2.8,3-4.4,3
			c-0.5,0-0.9-0.2-1.2-0.5c-0.5-0.6-0.5-1.8-0.2-3.6c0.6-3,2.2-4.5,4.9-4.5c1,0,1.6,0.1,2.1,0.2L66,14.6z"/>
	</g>
</g>
</svg>
