<?xml version="1.0" encoding="utf-8"?>
<!-- Generator: Adobe Illustrator 25.4.1, SVG Export Plug-In . SVG Version: 6.00 Build 0)  -->
<svg version="1.1" id="Logo" xmlns="http://www.w3.org/2000/svg" xmlns:xlink="http://www.w3.org/1999/xlink" x="0px" y="0px"
	 width="69.5px" height="31.5px" viewBox="0 0 69.5 31.5" style="enable-background:new 0 0 69.5 31.5;" xml:space="preserve">
<style type="text/css">
	.st0{fill:#0096D6;}
	.st1{fill:#0075C9;}
	.st2{fill:#71D1E7;}
	.st3{fill:#0033A1;}
	.st4{fill:#522582;}
	.st5{fill:#004F93;}
	.st6{fill:#2B2422;}
	.st7{fill:#1595D3;}
	.st8{fill:#009ADA;}
	.st9{fill-rule:evenodd;clip-rule:evenodd;fill:#009ADA;}
	.st10{fill:#211915;}
	.st11{fill:#1D1D1B;}
	.st12{fill:#FF8300;}
	.st13{fill:#EA0029;}
</style>
<g>
	<g>
		<path d="M69.5,31.2H0V0.3h69.5V31.2z M0.6,30.6h68.2V0.9H0.6V30.6z"/>
	</g>
	<g>
		<rect x="0.3" y="20.3" class="st6" width="68.7" height="0.6"/>
	</g>
	<path class="st7" d="M4.2,15.9V5.4h7.5v1.8H6.4v2.4H11v1.8H6.4v4.4H4.2z"/>
	<path class="st7" d="M20.6,5.4v1.9H15v2.2h5.1v1.8H15V14h5.8v1.9h-8V5.4H20.6z M16.8,5.4"/>
	<path class="st7" d="M28.1,7.4c0.4,0.2,0.6,0.6,0.6,1.3c0,0.6-0.2,1-0.7,1.2c-0.2,0.1-0.6,0.2-1.1,0.2h-2.5V7.2H27
		C27.5,7.2,27.9,7.3,28.1,7.4z M22.3,5.4v10.5h2.1v-4.1h2.3c0.6,0,1.1,0.1,1.3,0.3c0.2,0.2,0.4,0.7,0.4,1.3l0,1c0,0.3,0,0.6,0.1,0.9
		c0,0.1,0.1,0.3,0.1,0.6h2.4v-0.3c-0.2-0.1-0.3-0.3-0.4-0.6c0-0.2-0.1-0.5-0.1-1v-0.7c0-0.7-0.1-1.3-0.3-1.6c-0.2-0.4-0.5-0.6-1-0.8
		c0.6-0.2,1-0.5,1.2-1c0.3-0.5,0.4-1,0.4-1.5c0-0.4-0.1-0.8-0.2-1.1c-0.1-0.3-0.3-0.6-0.5-0.9c-0.3-0.3-0.6-0.6-1-0.7
		c-0.4-0.2-1-0.3-1.7-0.3H22.3z"/>
	<path class="st7" d="M38.4,7.4C38.8,7.6,39,8.1,39,8.7c0,0.6-0.2,1-0.7,1.2c-0.2,0.1-0.6,0.2-1.1,0.2h-2.5V7.2h2.6
		C37.8,7.2,38.1,7.3,38.4,7.4z M32.6,5.4v10.5h2.1v-4.1H37c0.6,0,1.1,0.1,1.3,0.3c0.2,0.2,0.4,0.7,0.4,1.3l0,1c0,0.3,0,0.6,0.1,0.9
		c0,0.1,0.1,0.3,0.1,0.6h2.4v-0.3c-0.2-0.1-0.3-0.3-0.4-0.6c0-0.2-0.1-0.5-0.1-1v-0.7c0-0.7-0.1-1.3-0.3-1.6c-0.2-0.4-0.5-0.6-1-0.8
		c0.6-0.2,1-0.5,1.2-1c0.3-0.5,0.4-1,0.4-1.5c0-0.4-0.1-0.8-0.2-1.1c-0.1-0.3-0.3-0.6-0.5-0.9c-0.3-0.3-0.6-0.6-1-0.7
		c-0.4-0.2-1-0.3-1.7-0.3H32.6z"/>
	<path class="st7" d="M44.8,5.4v10.5h-2.2V5.4H44.8z M43.7,5.2"/>
	<path class="st7" d="M50.9,5.4 M48.6,15.9V8.4l4.3,7.5h2.2V5.4h-2v7.3l-4.2-7.3h-2.3v10.5H48.6z"/>
	<path class="st7" d="M66.1,8.7h-2.2c-0.2-0.7-0.6-1.2-1.2-1.5c-0.4-0.2-0.8-0.2-1.2-0.2c-0.8,0-1.5,0.3-2.1,1
		c-0.5,0.6-0.8,1.6-0.8,2.9c0,1.3,0.3,2.2,0.9,2.7c0.6,0.5,1.3,0.8,2,0.8c0.7,0,1.3-0.2,1.8-0.6c0.5-0.4,0.8-1,0.9-1.7h-2.4v-1.8
		h4.4v5.6h-1.5l-0.2-1.3c-0.4,0.5-0.8,0.9-1.1,1.1c-0.6,0.4-1.3,0.5-2.1,0.5c-1.4,0-2.5-0.5-3.4-1.4c-0.9-1-1.4-2.3-1.4-4
		c0-1.7,0.5-3.1,1.4-4.1c0.9-1,2.2-1.5,3.7-1.5c1.3,0,2.4,0.3,3.2,1C65.5,6.8,66,7.7,66.1,8.7z M61.5,5.1"/>
	<path class="st6" d="M8.3,25.5c-0.2,0.1-0.4,0.2-0.6,0.2H6.6v-1.5h1.1c0.2,0,0.4,0,0.5,0.1c0.2,0.1,0.3,0.3,0.3,0.6
		C8.6,25.2,8.5,25.4,8.3,25.5z M6.6,27.9v-1.8h1.3c0.4,0,0.7-0.1,0.9-0.4c0.2-0.2,0.3-0.5,0.3-0.9c0-0.4-0.1-0.7-0.3-0.9
		c-0.2-0.2-0.5-0.3-0.9-0.3H6v4.2H6.6z"/>
	<path class="st6" d="M9.9,27.9v-4.2h0.6v1.7h2.2v-1.7h0.6v4.2h-0.6v-2h-2.2v2H9.9z"/>
	<path class="st6" d="M15.7,24.3l0.6,1.9H15L15.7,24.3z M14.4,27.9l0.5-1.3h1.7l0.4,1.3h0.6l-1.5-4.2h-0.6l-1.6,4.2H14.4z
		 M15.7,23.7"/>
	<path class="st6" d="M18.8,24.2h1.4c0.2,0,0.3,0,0.5,0.1c0.2,0.1,0.3,0.3,0.3,0.6c0,0.3-0.1,0.5-0.2,0.6c-0.2,0.1-0.4,0.2-0.6,0.2
		h-1.3V24.2z M18.8,27.9v-1.8h1.3c0.2,0,0.4,0,0.5,0.1c0.2,0.1,0.3,0.3,0.3,0.6l0,0.7c0,0.2,0,0.3,0,0.3c0,0.1,0,0.1,0,0.1h0.7v-0.1
		c-0.1,0-0.1-0.1-0.2-0.3c0-0.1,0-0.2,0-0.4l0-0.6c0-0.2-0.1-0.4-0.1-0.5c-0.1-0.1-0.2-0.2-0.4-0.3c0.2-0.1,0.3-0.2,0.4-0.4
		c0.1-0.2,0.2-0.4,0.2-0.6c0-0.5-0.2-0.8-0.6-1c-0.2-0.1-0.5-0.1-0.8-0.1h-1.9v4.2H18.8z"/>
	<path class="st6" d="M22.4,27.9v-4.2h0.8l1.2,3.5l1.2-3.5h0.8v4.2h-0.5v-2.5c0-0.1,0-0.2,0-0.4c0-0.2,0-0.4,0-0.6l-1.2,3.5h-0.6
		l-1.2-3.5v0.1c0,0.1,0,0.3,0,0.5c0,0.2,0,0.4,0,0.5v2.5H22.4z"/>
	<path class="st6" d="M28.9,24.3l0.6,1.9h-1.3L28.9,24.3z M27.6,27.9l0.5-1.3h1.7l0.4,1.3h0.6l-1.5-4.2h-0.6L27,27.9H27.6z
		 M28.9,23.7"/>
	<path class="st6" d="M33.1,23.6c0.5,0,0.9,0.1,1.2,0.4c0.3,0.3,0.5,0.6,0.5,1h-0.6c-0.1-0.3-0.2-0.5-0.4-0.6
		c-0.2-0.2-0.5-0.2-0.8-0.2c-0.4,0-0.7,0.1-1,0.4c-0.3,0.3-0.4,0.7-0.4,1.3c0,0.5,0.1,0.9,0.3,1.2c0.2,0.3,0.6,0.5,1,0.5
		c0.4,0,0.7-0.2,1-0.5c0.1-0.2,0.2-0.4,0.3-0.7h0.6c0,0.4-0.2,0.8-0.5,1.1C34,27.8,33.6,28,33,28c-0.5,0-0.9-0.1-1.2-0.4
		c-0.4-0.4-0.7-1-0.7-1.8c0-0.6,0.2-1.1,0.5-1.5C32,23.8,32.4,23.6,33.1,23.6z M33,23.6"/>
	<path class="st6" d="M37.2,23.7 M38.7,27.9v-0.5h-2.5V26h2.3v-0.5h-2.3v-1.3h2.5v-0.5h-3.1v4.2H38.7z"/>
	<path class="st6" d="M41.2,23.7 M39.6,26.1c0,0.5,0.1,0.9,0.2,1.2c0.3,0.5,0.7,0.8,1.4,0.8c0.7,0,1.2-0.3,1.4-0.8
		c0.1-0.3,0.2-0.7,0.2-1.2v-2.4h-0.6v2.6c0,0.3,0,0.5-0.1,0.7c-0.2,0.3-0.5,0.5-1,0.5c-0.4,0-0.7-0.2-0.9-0.5
		c-0.1-0.2-0.2-0.5-0.2-0.8v-2.6h-0.6V26.1z"/>
	<path class="st6" d="M43.4,23.7h3.4v0.5h-1.4v3.7h-0.6v-3.7h-1.4V23.7z"/>
	<path class="st6" d="M47.6,27.9v-4.2h0.6v4.2H47.6z M47.8,23.7"/>
	<path class="st6" d="M50.9,23.6c0.5,0,0.9,0.1,1.2,0.4c0.3,0.3,0.5,0.6,0.5,1H52c-0.1-0.3-0.2-0.5-0.4-0.6
		c-0.2-0.2-0.5-0.2-0.8-0.2c-0.4,0-0.7,0.1-1,0.4c-0.3,0.3-0.4,0.7-0.4,1.3c0,0.5,0.1,0.9,0.3,1.2c0.2,0.3,0.6,0.5,1,0.5
		c0.4,0,0.7-0.2,1-0.5c0.1-0.2,0.2-0.4,0.3-0.7h0.6c0,0.4-0.2,0.8-0.5,1.1c-0.3,0.4-0.8,0.5-1.3,0.5c-0.5,0-0.9-0.1-1.2-0.4
		c-0.4-0.4-0.7-1-0.7-1.8c0-0.6,0.2-1.1,0.5-1.5C49.8,23.8,50.2,23.6,50.9,23.6z M50.8,23.6"/>
	<path class="st6" d="M54.9,24.3l0.6,1.9h-1.3L54.9,24.3z M53.6,27.9l0.5-1.3h1.7l0.4,1.3h0.6l-1.5-4.2h-0.6L53,27.9H53.6z
		 M54.9,23.7"/>
	<path class="st6" d="M57.3,27.9v-4.2h0.6v3.7H60v0.5H57.3z"/>
	<path class="st6" d="M60.5,26.6H61c0,0.2,0.1,0.4,0.2,0.6c0.2,0.3,0.5,0.4,1,0.4c0.2,0,0.4,0,0.6-0.1c0.3-0.1,0.5-0.3,0.5-0.6
		c0-0.2-0.1-0.4-0.2-0.5c-0.1-0.1-0.4-0.2-0.7-0.2L61.8,26c-0.4-0.1-0.6-0.2-0.8-0.3c-0.3-0.2-0.4-0.4-0.4-0.8
		c0-0.4,0.1-0.7,0.4-0.9c0.3-0.2,0.6-0.4,1.1-0.4c0.4,0,0.8,0.1,1.1,0.3c0.3,0.2,0.5,0.6,0.5,1h-0.5c0-0.2-0.1-0.4-0.2-0.5
		c-0.2-0.2-0.5-0.3-0.9-0.3c-0.3,0-0.6,0.1-0.7,0.2c-0.1,0.1-0.2,0.3-0.2,0.5c0,0.2,0.1,0.4,0.3,0.5c0.1,0.1,0.4,0.1,0.8,0.2
		l0.6,0.1c0.3,0.1,0.5,0.2,0.7,0.3c0.3,0.2,0.4,0.5,0.4,0.9c0,0.5-0.2,0.8-0.5,1C63,27.9,62.6,28,62.1,28c-0.5,0-0.9-0.1-1.2-0.4
		C60.6,27.4,60.5,27,60.5,26.6z M62.1,23.6"/>
</g>
</svg>
