<?xml version="1.0" encoding="utf-8"?>
<!-- Generator: Adobe Illustrator 25.4.1, SVG Export Plug-In . SVG Version: 6.00 Build 0)  -->
<svg version="1.1" id="Logo" xmlns="http://www.w3.org/2000/svg" xmlns:xlink="http://www.w3.org/1999/xlink" x="0px" y="0px"
	 width="115px" height="31.5px" viewBox="0 0 115 31.5" style="enable-background:new 0 0 115 31.5;" xml:space="preserve">
<style type="text/css">
	.st0{fill:#0096D6;}
	.st1{fill:#0075C9;}
	.st2{fill:#71D1E7;}
	.st3{fill:#0033A1;}
	.st4{fill:#522582;}
	.st5{fill:#004F93;}
	.st6{fill:#2B2422;}
	.st7{fill:#1595D3;}
	.st8{fill:#009ADA;}
	.st9{fill-rule:evenodd;clip-rule:evenodd;fill:#009ADA;}
	.st10{fill:#211915;}
	.st11{fill:#1D1D1B;}
	.st12{fill:#FF8300;}
	.st13{fill:#EA0029;}
</style>
<g>
	<g>
		<path class="st4" d="M96.7,24.2c1.1,0,2.1-0.5,2.8-1.2c0,0,0.5-0.5,1.1-1.1c0.4-0.4,0.8-0.6,1.4-0.7c0.1,0,0.3,0,0.4,0
			c0.2,0,0.4,0,0.6,0c0.6,0.1,1.1,0.2,1.6,0.5l4.8,2c0,0,1.2,0.5,2.1,0.5h0.7c0.2,0,0.4-0.2,0.4-0.4V22c0-1.2-0.7-2.4-1.9-2.9
			l-1-0.4c-0.9-0.3-1.8-1-2.3-1.4c0,0-1-1.1,0.2-2.3l4.2-4.3c0.6-0.6,0.8-1.3,0.9-2.1c0,0,0-0.3-0.1-0.6c-0.1-0.2-0.2-0.4-0.3-0.5
			c-0.3-0.3-0.6-0.4-1.1-0.4h-0.7c-1.1,0-2.1,0.5-2.8,1.2c0,0-2.8,2.8-3.5,3.5l-3.9,3.9V9.6c0-1.4-1.1-2.5-2.5-2.5h-1.1
			c-0.3,0-0.7,0-0.9,0.1c-0.2,0.1-0.2,0.3-0.2,0.4v16.2c0,0.2,0.2,0.4,0.4,0.4H96.7z"/>
		<path class="st4" d="M76.6,22.1c0,0-0.9-0.2-2.7-1.7c-0.9-0.7-1.6-1.3-1.9-1.5c0.3-0.2,1.4-0.6,2.4-1.8c0.6-0.7,0.9-1.6,0.9-2.7
			c0-1-0.3-2-0.9-2.9c-0.6-0.9-1.4-1.7-2.3-2.4c-0.9-0.7-2-1.2-3.2-1.6c-1.2-0.4-2.3-0.6-3.4-0.6l-6.9,0c-0.2,0-0.4,0.2-0.4,0.4V19
			v2.6v0.9v1.1c0,0.2,0,0.3,0.2,0.4c0.2,0.1,0.7,0.1,1,0.1c0.4,0,0.8,0,1.2-0.2c0.6-0.2,1.1-0.6,1.5-1.1c0.7-0.9,0.8-1.8,0.8-2.9v-7
			c0-0.1,0-0.3,0.1-0.5c0-0.2,0.1-0.3,0.1-0.3c0.5-1,2.3-1.3,4.2-0.9c2.6,0.7,3.3,2.4,3.1,3.2c-0.3,0.8-1.2,1.3-2.4,1.3
			c-0.6,0-1.1-0.1-1.7-0.3c0,0-0.4-0.1-0.7-0.2c-0.1,0-0.4-0.2-0.6-0.2c-0.2,0-0.3,0.2-0.3,0.5v1.8c0,0.6,0.3,1.2,0.6,1.5l5.6,4.4
			c0.5,0.4,1.1,0.6,1.8,0.6l3.7,0c0.3,0,0.4-0.2,0.4-0.5v-1.2C76.8,22.3,76.7,22.1,76.6,22.1"/>
		<path class="st4" d="M54.1,19.7h-4.9c-0.7,0-1.3-0.2-2-0.5c-0.5-0.2-1.3-0.9-1.6-1.2c-0.5-0.5-0.8-1.1-1.1-1.7
			c-0.3-0.7-0.4-1.3-0.4-2c0-0.9,0.3-1.6,0.8-2.1c0.1-0.1,0.3-0.2,0.5-0.4c0.3-0.1,0.5-0.2,0.7-0.3c0.3-0.1,0.6-0.1,1-0.1
			c0.3,0,0.7,0,1,0.1c0.6,0.1,1.1,0.3,1.6,0.7c0.8,0.5,1.6,1.2,2.1,1.9l-5.1,0c-0.3,0-0.5,0.1-0.5,0.4c0,0.5,0.1,0.9,0.3,1.3
			c0.2,0.4,1.2,1.9,3.2,1.9l4.8,0c0.8,0,1.4-0.2,1.7-0.7c0.3-0.4,0.4-0.8,0.4-1.4c0-1-0.3-1.9-0.8-3c-0.5-1-1.2-2-2.1-2.8
			c-0.9-0.8-1.9-1.5-3.1-2.1c-1.2-0.5-2.4-0.8-3.7-0.8h-7c-0.2,0-0.4,0.2-0.4,0.4v7c0,1.3,0.3,2.6,0.8,3.7c0.5,1.2,1.2,2.2,2.1,3.1
			c0.9,0.9,1.9,1.6,3,2.1c1.2,0.5,2.4,0.8,3.7,0.8h7.1c0.2,0,0.4-0.2,0.4-0.4v-1.4c0-0.8-0.2-1.5-0.7-1.9
			C55.6,20,54.9,19.7,54.1,19.7"/>
		<path class="st4" d="M38.1,9.6c0-1.4-1.1-2.5-2.5-2.5H33c-0.1,0-0.3,0.1-0.3,0.1l-5.3,5c-1.8,1.7-4.3,2.7-7,2.7
			c-2.8,0-5.4-1.1-7.2-2.9c0,0-3.9-3.7-4-3.7c-0.8-0.7-1.8-1.2-3-1.2H3c-0.3,0-0.5,0.2-0.5,0.5v14.1c0,1.4,1.1,2.5,2.5,2.5h1l0.7,0
			c0.3,0,0.5-0.2,0.5-0.5l0-5c0-1.3,1.1-2.4,2.4-2.4c2.4,0,4.1,2,5.7,3.4c1.9,1.7,3.4,3.3,5.2,3.3c1.8,0,3.3-1.6,5.2-3.3
			c1.6-1.4,3.3-3.4,5.7-3.4c1.3,0,2.3,1.1,2.4,2.4v3c0,1.4,1.1,2.5,2.5,2.5h1.1c0.3,0,0.5,0,0.5,0l0,0c0.3,0,0.5-0.2,0.5-0.5
			C38.1,23.6,38.1,9.7,38.1,9.6"/>
		<path class="st4" d="M93.5,17H91c-0.9,0-1.6,0.4-1.9,1.2c-0.2,0.5-0.5,1-0.9,1.3c-0.4,0.3-0.9,0.5-1.6,0.5c-0.6,0-1.2-0.2-1.8-0.5
			c-0.6-0.3-1.2-0.8-1.7-1.3c-0.5-0.5-0.9-1.2-1.2-1.8c-0.3-0.7-0.5-1.3-0.5-2c0-0.8,0.3-1.5,0.8-2c0.5-0.5,1.1-0.8,1.9-0.8
			c0.9,0,1.8,0.3,2.6,1c0.4,0.3,0.7,0.4,1.1,0.4c0.4,0,0.8-0.2,1.3-0.7l1.8-1.7c0.1-0.1,0.1-0.2,0.1-0.3c0-0.1-0.1-0.2-0.2-0.3
			c-0.9-0.9-2-1.5-3.1-2c-1.1-0.5-2.3-0.7-3.5-0.7h-6.9c-0.3,0-0.4,0.2-0.4,0.5v6.9c0,1.3,0.3,2.6,0.8,3.8c0.5,1.2,1.3,2.3,2.2,3.2
			c0.9,0.9,2,1.6,3.1,2.2c1.2,0.5,2.4,0.8,3.7,0.8c1,0,2-0.2,2.8-0.5c0.9-0.3,1.6-0.8,2.3-1.4c0.6-0.6,1.1-1.3,1.5-2.2
			c0.4-0.9,0.6-1.8,0.7-2.8C93.9,17.2,93.8,17,93.5,17"/>
	</g>
</g>
</svg>
