<?xml version="1.0" encoding="utf-8"?>
<!-- Generator: Adobe Illustrator 25.4.1, SVG Export Plug-In . SVG Version: 6.00 Build 0)  -->
<svg version="1.1" id="Logo" xmlns="http://www.w3.org/2000/svg" xmlns:xlink="http://www.w3.org/1999/xlink" x="0px" y="0px"
	 width="29.4px" height="31.5px" viewBox="0 0 29.4 31.5" style="enable-background:new 0 0 29.4 31.5;" xml:space="preserve">
<style type="text/css">
	.st0{fill:#0096D6;}
	.st1{fill:#0075C9;}
	.st2{fill:#71D1E7;}
	.st3{fill:#0033A1;}
	.st4{fill:#522582;}
	.st5{fill:#004F93;}
	.st6{fill:#2B2422;}
	.st7{fill:#1595D3;}
	.st8{fill:#009ADA;}
	.st9{fill-rule:evenodd;clip-rule:evenodd;fill:#009ADA;}
	.st10{fill:#211915;}
	.st11{fill:#1D1D1B;}
	.st12{fill:#FF8300;}
	.st13{fill:#EA0029;}
</style>
<g>
	<polygon class="st11" points="14.1,3.9 20,17.2 27.2,17.2 20.1,1.4 11.6,1.4 2.3,21.2 5.8,21.2 	"/>
	<polygon class="st12" points="27.2,17.2 11.7,17.3 16,8.2 14.1,3.9 5.8,21.2 29,21.2 	"/>
	<g>
		<path class="st12" d="M2.4,24.7h0.7V25H2.2v-2.2h0.3V24.7z"/>
		<path class="st12" d="M5.3,24.2H4.6l0.4-0.9L5.3,24.2z M5.4,24.4L5.7,25H6l-1-2.3l-1,2.3h0.3l0.2-0.5H5.4z"/>
		<path class="st12" d="M7.3,23.1L7.3,23.1c0.3,0,0.5,0.1,0.5,0.4c0,0.3-0.2,0.4-0.5,0.4H7.3V23.1z M7.3,24h0.2C7.7,24,8,24,8,24.4
			c0,0.3-0.3,0.4-0.5,0.4H7.3V24z M7,25h0.5c0.4,0,0.8-0.2,0.8-0.6c0-0.3-0.2-0.5-0.4-0.5v0C8,23.7,8,23.6,8,23.4
			c0-0.5-0.4-0.6-0.8-0.6H7V25z"/>
		<path class="st12" d="M10.4,24.8c-0.5,0-0.9-0.4-0.9-0.9c0-0.5,0.4-0.9,0.9-0.9c0.5,0,0.9,0.4,0.9,0.9
			C11.3,24.4,10.9,24.8,10.4,24.8z M10.4,22.8c-0.6,0-1.1,0.5-1.1,1.1c0,0.6,0.5,1.1,1.1,1.1c0.6,0,1.1-0.5,1.1-1.1
			C11.5,23.3,11,22.8,10.4,22.8z"/>
		<path class="st12" d="M12.9,23.1L12.9,23.1c0.3,0,0.7,0,0.7,0.4c0,0.3-0.3,0.4-0.6,0.4h-0.1V23.1z M13.3,24c0.3,0,0.5-0.3,0.5-0.6
			c0-0.2-0.1-0.4-0.3-0.5c-0.2-0.1-0.4-0.1-0.6-0.1h-0.3V25h0.3v-0.9H13l0.6,0.9H14L13.3,24z"/>
		<path class="st12" d="M16.2,24.2h-0.8l0.4-0.9L16.2,24.2z M16.4,24.4l0.2,0.5h0.3l-1-2.3l-1,2.3h0.3l0.2-0.5H16.4z"/>
		<path class="st12" d="M18.3,25H18v-1.9h-0.5v-0.2h1.3v0.2h-0.5V25z"/>
		<path class="st12" d="M20.9,24.8c-0.5,0-0.9-0.4-0.9-0.9c0-0.5,0.4-0.9,0.9-0.9c0.5,0,0.9,0.4,0.9,0.9
			C21.7,24.4,21.3,24.8,20.9,24.8z M20.9,22.8c-0.6,0-1.1,0.5-1.1,1.1c0,0.6,0.5,1.1,1.1,1.1c0.6,0,1.1-0.5,1.1-1.1
			C22,23.3,21.5,22.8,20.9,22.8z"/>
		<path class="st12" d="M23.4,23.1L23.4,23.1c0.3,0,0.7,0,0.7,0.4c0,0.3-0.3,0.4-0.6,0.4h-0.1V23.1z M23.8,24c0.3,0,0.5-0.3,0.5-0.6
			c0-0.2-0.1-0.4-0.3-0.5c-0.2-0.1-0.4-0.1-0.6-0.1h-0.3V25h0.3v-0.9h0.1l0.6,0.9h0.3L23.8,24z"/>
		<path class="st12" d="M25.8,25h-0.3v-2.2h0.3V25z"/>
		<path class="st12" d="M28,24.8c-0.5,0-0.9-0.4-0.9-0.9c0-0.5,0.4-0.9,0.9-0.9c0.5,0,0.9,0.4,0.9,0.9C28.9,24.4,28.5,24.8,28,24.8z
			 M28,22.8c-0.6,0-1.1,0.5-1.1,1.1c0,0.6,0.5,1.1,1.1,1.1c0.6,0,1.1-0.5,1.1-1.1C29.2,23.3,28.7,22.8,28,22.8z"/>
	</g>
	<path class="st11" d="M4.6,28.4H3.7l0.4-1.3h0L4.6,28.4z M4.8,29.2l0.3,0.7h1.1l-1.6-4.1H3.5l-1.6,4.1h1.1l0.3-0.7H4.8z"/>
	<path class="st11" d="M8,26.6h0.1c0.3,0,0.7,0.1,0.7,0.5c0,0.4-0.4,0.5-0.7,0.5H8V26.6z M9.1,28.3c0.6-0.1,0.9-0.6,0.9-1.2
		c0-0.9-0.6-1.3-1.4-1.3H6.9v4.1H8v-1.6h0l1,1.6h1.3L9.1,28.3z"/>
	<path class="st11" d="M12.1,29.9H11v-4.1h1.1V29.9z"/>
	<path class="st11" d="M15.4,26.9c-0.2-0.2-0.4-0.3-0.7-0.3c-0.2,0-0.5,0.1-0.5,0.3c0,0.2,0.3,0.3,0.5,0.4l0.3,0.1
		c0.6,0.2,1,0.5,1,1.1c0,0.4-0.1,0.8-0.4,1.1c-0.3,0.3-0.8,0.4-1.2,0.4c-0.5,0-1-0.2-1.5-0.5l0.5-0.9c0.3,0.2,0.6,0.4,1,0.4
		c0.3,0,0.5-0.1,0.5-0.4c0-0.3-0.4-0.4-0.7-0.5c-0.7-0.2-1.1-0.4-1.1-1.2c0-0.8,0.6-1.4,1.4-1.4c0.4,0,0.9,0.1,1.3,0.3L15.4,26.9z"
		/>
	<path class="st11" d="M18.4,29.9h-1.1v-3.2h-0.9v-0.9h2.8v0.9h-0.9V29.9z"/>
	<path class="st11" d="M22.1,26.7c0.6,0,1.2,0.5,1.2,1.1c0,0.7-0.5,1.2-1.2,1.2c-0.6,0-1.2-0.5-1.2-1.2
		C20.9,27.2,21.5,26.7,22.1,26.7z M22.1,25.7c-1.2,0-2.3,0.9-2.3,2.1c0,1.3,1,2.3,2.3,2.3c1.3,0,2.3-0.9,2.3-2.3
		C24.4,26.6,23.3,25.7,22.1,25.7z"/>
	<path class="st11" d="M25.2,25.8h1.1l2,2.5h0v-2.5h1.1v4.1h-1.1l-2-2.5h0v2.5h-1.1V25.8z"/>
</g>
</svg>
