<?xml version="1.0" encoding="utf-8"?>
<!-- Generator: Adobe Illustrator 25.4.1, SVG Export Plug-In . SVG Version: 6.00 Build 0)  -->
<svg version="1.1" id="Logo" xmlns="http://www.w3.org/2000/svg" xmlns:xlink="http://www.w3.org/1999/xlink" x="0px" y="0px"
	 width="84.4px" height="31.5px" viewBox="0 0 84.4 31.5" style="enable-background:new 0 0 84.4 31.5;" xml:space="preserve">
<style type="text/css">
	.st0{fill:#0096D6;}
	.st1{fill:#0075C9;}
	.st2{fill:#71D1E7;}
	.st3{fill:#0033A1;}
	.st4{fill:#522582;}
	.st5{fill:#004F93;}
	.st6{fill:#2B2422;}
	.st7{fill:#1595D3;}
	.st8{fill:#009ADA;}
	.st9{fill-rule:evenodd;clip-rule:evenodd;fill:#009ADA;}
	.st10{fill:#211915;}
	.st11{fill:#1D1D1B;}
	.st12{fill:#FF8300;}
	.st13{fill:#EA0029;}
</style>
<g>
	<path class="st8" d="M24.8,12.7h-3.2h-0.9l0.5-0.8l3.2-5.4l0.5-0.8l0.5,0.8l3.2,5.4l0.5,0.8h-0.9H24.8z M22.5,11.6h2.2H27l-2.2-3.8
		L22.5,11.6z M24.8,14.8H18H17l0.5-0.8l6.8-11.6l0.5-0.8l0.5,0.8L32,14l0.5,0.8h-0.9H24.8z M18.9,13.8h5.9h5.9l-5.9-10L18.9,13.8z"
		/>
	<path class="st9" d="M27.3,23.7L27.3,23.7v3.3c0,0.7-0.3,0.9-1,0.9h-0.7h0h0h0h0c-0.1,0-0.1,0.1-0.1,0.1l0,0c0,1.3,0.5,1.4,0.9,1.4
		h6h0c0.1,0,0.1-0.1,0.1-0.1v0v-1.3v0c0-0.1-0.1-0.1-0.1-0.1h-0.9c-0.8,0-1-0.2-1-0.9v-7.9c0-0.7,0.3-0.9,1-0.9h0.8h0h0
		c0.1,0,0.1-0.1,0.1-0.1v-1.4v0c0-0.1,0-0.1-0.1-0.1h-6.9c-0.1,0-0.1,0.1-0.1,0.1v0v0c0,1.2,0.5,1.5,0.8,1.5c0.8,0,1,0.2,1,0.9V22
		h-5.1v-2.8c0-0.7,0.3-0.9,1-0.9c0.2,0,0.5,0,0.7,0h0h0h0h0c0.1,0,0.1-0.1,0.1-0.1v0v0c0-1.4-0.5-1.5-1-1.5c-2,0-4,0-5.9,0h0h0h0
		l0,0h0h0h0l0,0c-0.1,0-0.1,0.1-0.1,0.1l0,0l0,0c0,0.4,0,0.9,0,1.3l0,0.1l0,0v0l0,0h0c0,0.1,0.1,0.1,0.1,0.1l0,0h0H18
		c0.8,0,1,0.2,1,0.9v7.9c0,0.7-0.3,0.9-1,0.9h-0.9h0h0h0C17,27.9,17,28,17,28v1.3v0v0v0v0l0,0v0c0,0.1,0.1,0.1,0.1,0.1h0h0h0h0H24h0
		c0.1,0,0.1-0.1,0.1-0.1l0,0c0-1.3-0.5-1.4-0.9-1.4c-0.8,0-1-0.2-1-0.9v-3.3H27.3z"/>
	<path class="st9" d="M14.7,16.4c-0.3,0-0.7,0-1,0c-0.2,0-0.2,0-0.3,0.2c-0.1,0.2-0.1,0.4-0.2,0.6c-0.1,0.3-0.1,0.3-0.4,0.1
		c-1.2-0.8-2.2-1.1-3.6-1.1c-4,0-6.8,2.8-6.8,7c0,3.9,2.8,6.7,6.7,6.7c3.4,0,5.7-2,6.2-5.3l0,0c0-0.1-0.1-0.1-0.1-0.1h0h0h0h0h-0.1
		c-0.5,0-1.1,0-1.6,0h0h0h0h0h0h0c-0.1,0-0.1,0-0.1,0.1l0,0.1v0l0,0l0,0l0,0v0c-0.5,2.2-1.8,3.4-3.7,3.4c-2.4,0-3.8-1.7-3.8-5
		c0-3,1.5-4.8,3.8-4.8c1.5,0,2.5,0.7,3.1,1.9c0.8,1.8,1.1,1.8,2,1.8l0.1,0h0c0.1,0,0.1-0.1,0.1-0.1l0,0v-0.1c0-1.6,0-3.2,0-4.8v-0.1
		v0v0c0-0.1-0.1-0.1-0.1-0.1l0,0L14.7,16.4z"/>
	<path class="st9" d="M13.6,2.2c-0.1,0-0.2,0-0.3,0c-0.1,0-0.3,0-0.4,0c-0.4,0-0.4,0-0.5,0.4c0,0.1-0.1,0.2-0.1,0.3
		c-0.1,0.2,0,0.2-0.2,0c-1-0.8-2.1-1.1-3.6-1.1c-3.2,0-5.2,1.6-5.2,4.3c0,2.5,1.6,3.2,3.8,3.7l2,0.5c2.3,0.5,2.6,0.8,2.6,1.7
		c0,1-1,1.7-2.4,1.7c-1.4,0-2.8-0.6-3.4-1.5c-0.7-0.9-0.9-1.4-1.2-1.7c-0.2-0.2-0.5-0.3-1.1-0.3l-0.1,0c0,0,0,0,0,0
		c-0.1,0-0.1,0.1-0.1,0.1c0,0,0,0,0,0l0,0.2v2.1c0,0.7,0,1.5,0,2.2v0.1v0v0c0,0.1,0.1,0.1,0.1,0.1h0h0h0h0h0h0.1h0.5
		c0.2,0,0.4,0,0.6,0c0.2,0,0.2,0,0.2-0.2c0-0.1,0.1-0.2,0.1-0.3c0-0.1,0.1-0.2,0.1-0.4c0-0.1,0-0.2,0.2,0c1.1,0.9,2.5,1.4,4,1.4
		c3.4,0,5.3-1.6,5.3-4.4c0-5.4-8.6-3.1-8.6-5.9c0-1,1.1-1.7,2.6-1.7c1.2,0,2.4,0.7,3,1.5c1.1,1.8,1.3,1.9,2.3,1.9h0h0h0h0h0h0h0h0
		c0.1,0,0.1-0.1,0.1-0.1v0v0v0v0V6.6c0-0.4,0-0.8,0-1.2c0-0.5,0-1,0-1.4c0-0.3,0-0.6,0-0.9c0-0.2,0-0.4,0-0.6V2.4l0,0v0
		c0-0.1-0.1-0.1-0.1-0.1l0,0H13.6z"/>
	<path class="st10" d="M63.7,23.7v1.3h1.5v4.6h1.4v-4.6h1.5v-1.3H63.7z M62.9,24.9v-1.3h-3.8v5.9h3.8v-1.3h-2.4v-1h2V26h-2v-1H62.9z
		 M55.9,28.3h-1v-1.1h1c0.6,0,1,0.2,1,0.5C56.9,28.1,56.5,28.3,55.9,28.3z M54.9,24.9h0.8c0.5,0,0.8,0.1,0.8,0.5
		c0,0.3-0.3,0.5-0.8,0.5h-0.8V24.9z M57.3,26.4c0.4-0.2,0.7-0.7,0.7-1.2c0-1.1-0.9-1.5-2.2-1.5h-2.2v5.9h2.7c1.3,0,2-0.7,2-1.8
		C58.2,27.2,57.9,26.7,57.3,26.4z M49.5,28.4c-1,0-1.7-0.8-1.7-1.8c0-1,0.8-1.8,1.7-1.8c1,0,1.7,0.8,1.7,1.8
		C51.2,27.6,50.4,28.4,49.5,28.4z M49.5,23.5c-1.7,0-3.1,1.4-3.1,3.1c0,1.7,1.4,3.1,3.1,3.1c1.7,0,3.1-1.4,3.1-3.1
		C52.6,24.9,51.2,23.5,49.5,23.5z M44.1,23.7V26h-2.2v-2.3h-1.4v5.9h1.4v-2.3h2.2v2.3h1.4v-5.9H44.1z M37.6,28.4
		c-1,0-1.8-0.8-1.8-1.8c0-1,0.8-1.8,1.8-1.8c0.6,0,1.1,0.3,1.4,0.7l0.5-1.2c-0.5-0.5-1.3-0.7-2-0.7c-1.8,0-3.2,1.4-3.2,3.1
		c0,1.7,1.4,3.1,3.2,3.1c0.7,0,1.4-0.3,2-0.7L39,27.7C38.7,28.1,38.2,28.4,37.6,28.4z"/>
	<path class="st10" d="M81.1,16.7v3.6l-2.6-3.6h-1.4v5.9h1.4v-3.6l2.6,3.6h1.4v-5.9H81.1z M72.8,20.3l0.7-1.8l0.7,1.8H72.8z
		 M75,22.5h1.5l-2.4-5.9h-1.3l-2.4,5.9h1.5l0.4-1h2.3L75,22.5z M66.7,17.9h1c0.5,0,0.8,0.2,0.8,0.7c0,0.5-0.4,0.7-0.8,0.7h-1V17.9z
		 M70.2,22.5l-1.5-2c0.8-0.3,1.2-1.1,1.2-1.9c0-1.1-0.7-2-2.2-2h-2.4v5.9h1.4v-1.9h0.6l1.3,1.9H70.2z M64.2,22.5v-5.9h-1.4v5.9H64.2
		z M61.9,17.9v-1.3h-3.8v5.9h3.8v-1.3h-2.4v-1h2V19h-2v-1H61.9z M55,21.3h-1v-1.1h1c0.6,0,1,0.2,1,0.5C56,21.1,55.6,21.3,55,21.3z
		 M54,17.9h0.8c0.5,0,0.8,0.1,0.8,0.5c0,0.3-0.3,0.5-0.8,0.5H54V17.9z M56.4,19.4c0.4-0.2,0.7-0.7,0.7-1.2c0-1.1-0.9-1.5-2.2-1.5
		h-2.2v5.9h2.7c1.3,0,2-0.7,2-1.8C57.4,20.2,57,19.7,56.4,19.4z M50.3,16.7v3.5c0,0.8-0.5,1.3-1.1,1.3c-0.7,0-1.1-0.5-1.1-1.3v-3.5
		h-1.4V20c0,1.5,0.9,2.6,2.5,2.6c1.6,0,2.5-1.1,2.5-2.6v-3.3H50.3z M42.9,21.4c-1,0-1.7-0.8-1.7-1.8c0-1,0.8-1.8,1.7-1.8
		c1,0,1.7,0.8,1.7,1.8C44.7,20.6,43.9,21.4,42.9,21.4z M42.9,16.5c-1.7,0-3.1,1.4-3.1,3.1c0,1.7,1.4,3.1,3.1,3.1
		c1.7,0,3.1-1.4,3.1-3.1C46.1,17.9,44.6,16.5,42.9,16.5z M36.9,18.8c-0.7-0.1-0.9-0.3-0.9-0.6c0-0.3,0.4-0.5,0.9-0.5
		c1,0,1.5,0.6,1.5,0.6l0.6-1.1c-0.8-0.7-1.9-0.7-2.1-0.7c-1.5,0-2.3,0.9-2.3,1.9c0,1,0.7,1.6,2.3,1.8c0.8,0.1,1,0.3,1,0.6
		c0,0.3-0.3,0.6-1,0.6c-0.5,0-1.2-0.2-1.8-0.8l-0.6,1.1c0,0,0.9,1,2.4,1c1.6,0,2.4-0.8,2.4-1.9C39.3,19.5,38.3,19.1,36.9,18.8z"/>
	<rect x="70" y="23.7" class="st9" width="12.5" height="5.9"/>
</g>
</svg>
