<?xml version="1.0" encoding="utf-8"?>
<!-- Generator: Adobe Illustrator 25.4.1, SVG Export Plug-In . SVG Version: 6.00 Build 0)  -->
<svg version="1.1" id="Logo" xmlns="http://www.w3.org/2000/svg" xmlns:xlink="http://www.w3.org/1999/xlink" x="0px" y="0px"
	 width="86.8px" height="31.5px" viewBox="0 0 86.8 31.5" style="enable-background:new 0 0 86.8 31.5;" xml:space="preserve">
<style type="text/css">
	.st0{fill:#0096D6;}
	.st1{fill:#0075C9;}
	.st2{fill:#71D1E7;}
	.st3{fill:#0033A1;}
	.st4{fill:#522582;}
	.st5{fill:#004F93;}
	.st6{fill:#2B2422;}
	.st7{fill:#1595D3;}
	.st8{fill:#009ADA;}
	.st9{fill-rule:evenodd;clip-rule:evenodd;fill:#009ADA;}
	.st10{fill:#211915;}
	.st11{fill:#1D1D1B;}
	.st12{fill:#FF8300;}
	.st13{fill:#EA0029;}
</style>
<g>
	<path class="st13" d="M43.5,1.7c-27.4,0-42,19.5-42,19.5l6,4c0,0,0.7-1.8,2.4-4.4c0,0.6,0.1,1.1,0.1,1.1c1.1,8.2,9,8,9,8h49.3
		c0,0,8.1,0.2,9.1-8c0,0,0.1-0.4,0.1-1.1c1.6,2.5,2.3,4.3,2.3,4.3l6-4C85.8,21.1,71,1.7,43.5,1.7z M76.1,21.8c0,0-1.1,6.3-8,6.3H19
		c-6.9,0-7.9-6.3-7.9-6.3c-0.3-1.7,0.1-2.8,0.6-3.6c5-6.6,14.8-15.4,31.9-15.4c17.2,0,27.1,8.9,32.1,15.5
		C76.2,19,76.4,20.1,76.1,21.8z"/>
	<path class="st13" d="M69.8,22c0,0-0.5,0.2-0.8,0c-0.2-0.2,0-0.7,0-0.7l2.2-4.7H69l-0.4,0.6c-1.3-1.2-3.8-0.6-5.4,1.1
		c-0.9,0.9-1.4,2-1.5,3c-0.3,0.2-0.7,0.4-1.2,0.6c0,0-0.5,0.2-0.8,0c-0.2-0.2,0-0.7,0-0.7l3.9-8.1h-2.3l-2.1,4.1
		c-1.3-1.2-3.8-0.6-5.4,1.1c-0.3,0.3-0.6,0.7-0.8,1l0,0c0,0,0,0.1,0,0.1c0,0.1-0.1,0.2-0.1,0.2c-1.2,2.1-2.8,2.5-2.8,2.5
		c-3.2,1-3.6-0.6-3.6-0.6c3.6-1.3,5-2.9,4.9-4.1c-0.1-1.2-1.8-1.3-1.8-1.3c-2.7-0.2-5.1,1.8-5.7,3.6c-0.2,0.6-0.2,1.2-0.1,1.7
		c-1.1,0.6-1.7,0.7-1.7,0.7c-0.9,0.3-1-0.1-1.1-0.4c-0.1-0.3-0.5-2.6-0.5-2.6l3.8-2.5h-2.4l-2.9,1.8c-0.7,0.3-0.4-0.4-0.4-0.4
		l2.4-4.8h-2.3L35,20.9c-0.4,0.3-1.3,0.8-2,1c0,0-0.5,0.2-0.8,0c-0.2-0.2,0-0.7,0-0.7l2.2-4.7h-2.3l-0.3,0.6
		c-1.3-1.2-3.8-0.6-5.4,1.1C25,19.9,24.6,22,25.7,23c0.8,0.8,2.4,0.7,3.7-0.3c0,0,0.3-0.3,0.5,0c0.2,0.4,1,1.2,2.8,0.5
		c0.6-0.2,1.1-0.5,1.5-0.7l-0.5,1H36l1.1-2.3l1-0.6c0,0,0.3-0.2,0.4,0.3c0,0,0.5,1.9,0.7,2.2c0.2,0.3,0.6,0.8,2.2,0.4
		c1.2-0.4,2.4-0.8,3-1c0.5,0.7,1.6,1.2,3.2,1.2c2.5,0,4.2-1.2,5-1.8c0.1,0.5,0.2,0.9,0.6,1.2c0.8,0.8,2.4,0.7,3.7-0.3
		c0,0,0.3-0.3,0.5,0c0.2,0.4,1,1.2,2.8,0.5c0.8-0.3,1.4-0.6,1.7-0.9c0.1,0.2,0.2,0.5,0.4,0.7c0.8,0.8,2.4,0.7,3.7-0.3
		c0,0,0.3-0.3,0.5,0c0.2,0.4,1,1.2,2.8,0.5c1.8-0.7,2.3-1.4,2.3-1.4l-0.5-0.8C71.2,21.2,70.7,21.6,69.8,22z M30.4,20.6
		c-0.8,1.1-1.9,1.7-2.5,1.2c-0.6-0.4-0.4-1.6,0.4-2.7c0.8-1.1,1.9-1.7,2.5-1.2C31.4,18.3,31.2,19.5,30.4,20.6z M46.5,19.8
		c0,0,0.5-1.7,2.2-2.4c0,0,0.5-0.2,0.7,0c0,0,0.4,0.3-0.1,1C49,19,48.1,20,47.1,20.4C47.1,20.4,46.2,20.8,46.5,19.8z M58,20.6
		c-0.8,1.1-1.9,1.7-2.5,1.2c-0.6-0.4-0.4-1.6,0.4-2.7c0.8-1.1,1.9-1.7,2.5-1.2C58.9,18.3,58.8,19.5,58,20.6z M67.2,20.7
		c-0.8,1.1-1.9,1.7-2.5,1.2c-0.6-0.4-0.4-1.6,0.4-2.7c0.8-1.1,1.9-1.7,2.5-1.2C68.1,18.3,68,19.6,67.2,20.7z"/>
	<polygon class="st13" points="29.2,14.9 30,13.2 19.5,13.2 18.6,14.9 22.7,14.9 18.5,23.5 21.2,23.5 25.4,14.9 	"/>
</g>
</svg>
